# xmcd
#
# Track frame offsets:
#	150
#	13782
#	26590
#	38767
#	56221
#	72913
#	94627
#	107571
#	127346
#	142686
#	155724
#	173891
#
# Disc length: 2489 seconds
#
# Revision: 0
# Processed by: cddbd v1.5.2PL0 Copyright (c) Steve Scherf et al.
# Submitted via: EasyCDDAExtractor 2010.4.0.0
#
DISCID=a209b70c
DTITLE=Zydeco A-Go-Go - Let the Good Times roll
DYEAR=2008
DGENRE=zydeco
TTITLE0=Zydeco sont pas salé
TTITLE1=Let the good times roll
TTITLE2=Goin' to the Rock and Bowl
TTITLE3=Marina
TTITLE4=Dance all night
TTITLE5=Zydeco groove
TTITLE6=Pine Point trail ride
TTITLE7=Country girl
TTITLE8=Pamela Jean
TTITLE9=Allons a Lafayette
TTITLE10=Reno waltz
TTITLE11=Nunca se acaba
EXTD=
EXTT0=
EXTT1=
EXTT2=
EXTT3=
EXTT4=
EXTT5=
EXTT6=
EXTT7=
EXTT8=
EXTT9=
EXTT10=
EXTT11=
PLAYORDER=
